<svg width="919" height="900" viewBox="0 0 919 900" fill="none" xmlns="http://www.w3.org/2000/svg">
<path d="M0 32C0 14.3269 14.3269 0 32 0H819C874.228 0 919 44.7715 919 100V800C919 855.228 874.228 900 819 900H32C14.3269 900 0 885.673 0 868V32Z" fill="#B89191"/>
<path d="M75.7071 369.338L138.993 306.052C155.2 289.845 181.476 289.845 197.683 306.052L597.36 705.729C613.567 721.936 613.567 748.212 597.36 764.419L534.074 827.705L75.7071 369.338Z" fill="white"/>
<path d="M75.7071 369.338L138.993 306.052C155.2 289.845 181.476 289.845 197.683 306.052L597.36 705.729C613.567 721.936 613.567 748.212 597.36 764.419L534.074 827.705L75.7071 369.338Z" fill="white"/>
<path d="M75.7071 369.338L138.993 306.052C155.2 289.845 181.476 289.845 197.683 306.052L597.36 705.729C613.567 721.936 613.567 748.212 597.36 764.419L534.074 827.705L75.7071 369.338Z" fill="white"/>
<path d="M75.7071 369.338L138.993 306.052C155.2 289.845 181.476 289.845 197.683 306.052L597.36 705.729C613.567 721.936 613.567 748.212 597.36 764.419L534.074 827.705L75.7071 369.338Z" fill="white"/>
<path d="M75.7071 369.338L138.993 306.052C155.2 289.845 181.476 289.845 197.683 306.052L597.36 705.729C613.567 721.936 613.567 748.212 597.36 764.419L534.074 827.705L75.7071 369.338Z" stroke="black"/>
<path d="M779.851 101.052L842.3 163.501L383.501 622.3L321.052 559.851C304.845 543.644 304.845 517.368 321.052 501.161L721.161 101.052C737.368 84.8452 763.644 84.8453 779.851 101.052Z" fill="white"/>
<path d="M779.851 101.052L842.3 163.501L383.501 622.3L321.052 559.851C304.845 543.644 304.845 517.368 321.052 501.161L721.161 101.052C737.368 84.8452 763.644 84.8453 779.851 101.052Z" fill="white"/>
<path d="M779.851 101.052L842.3 163.501L383.501 622.3L321.052 559.851C304.845 543.644 304.845 517.368 321.052 501.161L721.161 101.052C737.368 84.8452 763.644 84.8453 779.851 101.052Z" fill="white"/>
<path d="M779.851 101.052L842.3 163.501L383.501 622.3L321.052 559.851C304.845 543.644 304.845 517.368 321.052 501.161L721.161 101.052C737.368 84.8452 763.644 84.8453 779.851 101.052Z" fill="white"/>
<path d="M779.851 101.052L842.3 163.501L383.501 622.3L321.052 559.851C304.845 543.644 304.845 517.368 321.052 501.161L721.161 101.052C737.368 84.8452 763.644 84.8453 779.851 101.052Z" stroke="black"/>
<path d="M90.7734 382.975L151.578 322.17C167.98 305.768 194.573 305.768 210.975 322.17L566.93 678.126L476.427 768.628L90.7734 382.975Z" fill="white"/>
<path d="M90.7734 382.975L151.578 322.17C167.98 305.768 194.573 305.768 210.975 322.17L566.93 678.126L476.427 768.628L90.7734 382.975Z" fill="white"/>
<path d="M90.7734 382.975L151.578 322.17C167.98 305.768 194.573 305.768 210.975 322.17L566.93 678.126L476.427 768.628L90.7734 382.975Z" fill="white"/>
<path d="M90.7734 382.975L151.578 322.17C167.98 305.768 194.573 305.768 210.975 322.17L566.93 678.126L476.427 768.628L90.7734 382.975Z" fill="white"/>
</svg>
